Coordinates
version=1
nRows=19
nColumns=36
inDegrees=yes

Units are S.I. units (second, meters, Newtons, ...)
If the header above contains a line with 'inDegrees', this indicates whether rotational values are in degrees (yes) or radians (no).

endheader
time	pelvis_tilt	pelvis_list	pelvis_rotation	pelvis_tx	pelvis_ty	pelvis_tz	hip_flexion_r	hip_adduction_r	hip_rotation_r	knee_angle_r	knee_angle_r_beta	ankle_angle_r	subtalar_angle_r	mtp_angle_r	hip_flexion_l	hip_adduction_l	hip_rotation_l	knee_angle_l	knee_angle_l_beta	ankle_angle_l	subtalar_angle_l	mtp_angle_l	lumbar_extension	lumbar_bending	lumbar_rotation	arm_flex_r	arm_add_r	arm_rot_r	elbow_flex_r	pro_sup_r	arm_flex_l	arm_add_l	arm_rot_l	elbow_flex_l	pro_sup_l
      1.05000000	     -4.46831841	      0.23923177	     19.11154853	      0.70762260	      0.87891998	     -0.04272683	     13.27169348	      6.58537188	     -0.89235028	     23.85972217	      0.41643071	     18.21154851	    -14.14849573	     -7.49999980	     32.48603757	     -5.65364732	     -5.81737941	     15.34812938	      0.26787539	     -2.90507996	    -19.76773597	     -7.49999980	      0.62375449	      0.12415995	      5.71989541	     28.97633001	     -4.84727715	     62.03558746	    128.07946036	    105.99558375	     22.45221915	      2.03975699	     61.64102725	    119.65188878	    107.51012545
      1.06666670	     -4.45458248	      0.41860228	     19.14604001	      0.70816466	      0.88017994	     -0.04220238	     13.08961321	      6.41811256	     -0.77779804	     23.66248697	      0.41298831	     18.24169495	    -14.21460666	     -7.49999981	     32.64826389	     -5.45411683	     -5.74948812	     15.88129102	      0.27718082	     -2.92197437	    -20.15846835	     -7.49999981	      0.61858138	      0.04428223	      5.82656052	     29.04704485	     -4.76176111	     62.13187337	    127.98819006	    105.54118581	     22.71180902	      2.03884097	     61.88955411	    119.55841742	    107.19593972
      1.08333330	     -4.38105603	      0.58766333	     19.12293915	      0.70849714	      0.88232935	     -0.04140490	     12.66057710	      6.31129716	     -0.64064714	     23.15377589	      0.40410962	     18.26133500	    -14.10179998	     -7.49999982	     32.61136104	     -5.34246808	     -5.92264475	     16.21320136	      0.28297375	     -2.95710760	    -20.08057751	     -7.49999982	      0.50599897	     -0.01480693	      5.92623710	     29.14028926	     -4.57861628	     62.39415124	    127.85959953	    105.32221805	     22.91775907	      2.02986297	     62.12119442	    119.56046307	    107.13332516
      1.10000000	     -4.21518577	      0.75835897	     19.10318009	      0.70740281	      0.88427872	     -0.04090744	     12.01524735	      6.24167114	     -0.46706473	     22.35618276	      0.39018900	     18.08143658	    -14.08335301	     -7.49999982	     32.44562018	     -5.22758441	     -5.90559861	     16.28986191	      0.28431173	     -3.32343524	    -20.29306396	     -7.49999982	      0.30457732	     -0.01731403	      6.23833449	     29.33450405	     -4.48854919	     62.44587834	    127.76112812	    104.96510041	     23.11047538	      2.02045036	     62.37707660	    119.50058781	    106.83792123
      1.11666670	     -3.99613909	      0.90220542	     19.17267739	      0.70580014	      0.88693668	     -0.04063329	     11.23404629	      6.17306072	     -0.47308797	     21.29223637	      0.37161963	     17.81429219	    -13.71529240	     -7.49999983	     32.30297745	     -5.14401383	     -5.93657749	     16.24653512	      0.28355553	     -3.14121202	    -19.84649891	     -7.49999983	      0.02609685	      0.04650888	      6.54294400	     29.67748480	     -4.46430039	     62.13537596	    127.65476571	    105.85270129	     23.24044456	      2.09187504	     62.45644981	    119.64367626	    107.72630602
      1.13333330	     -3.71486737	      1.17079876	     19.31687532	      0.70463534	      0.89076955	     -0.04009926	     10.30663995	      5.99629037	     -0.42262734	     20.06439772	      0.35018980	     17.29779200	    -13.57201128	     -7.49999983	     32.07546172	     -4.92555241	     -5.83376405	     16.06671122	      0.28041701	     -2.75974471	    -19.53243293	     -7.49999983	     -0.40058072	     -0.02354925	      6.87500516	     30.02958183	     -4.53692671	     61.63360768	    127.44157532	    106.05404674	     23.43451271	      2.13328509	     62.65818848	    119.76625730	    107.96800167
      1.15000000	     -3.87630371	      1.41085009	     19.43073412	      0.70292493	      0.89454630	     -0.03901688	     10.03620904	      5.68766469	     -0.29240938	     19.11654590	      0.33364667	     16.82757507	    -13.36549958	     -7.49999983	     32.45318425	     -4.62192082	     -5.64631382	     16.03072161	      0.27978887	     -2.41823629	    -19.60571921	     -7.49999983	     -0.38105097	     -0.26250988	      7.13519637	     30.41473896	     -4.58514483	     61.37176450	    127.20563016	    106.02570762	     23.51948463	      2.10744532	     62.73296137	    119.88496586	    107.98605371
      1.16666670	     -3.29736352	      1.83454900	     19.63525510	      0.70004306	      0.89952103	     -0.03822404	      8.74403812	      5.47155160	     -0.04958061	     17.63830728	      0.30784654	     15.49509229	    -13.85058560	     -7.49999984	     32.05283581	     -4.35286371	     -5.42950705	     15.98053252	      0.27891291	     -1.78203234	    -19.09391298	     -7.49999984	     -1.48068024	     -0.37492952	      7.40682506	     30.66804742	     -4.68719366	     60.65108726	    126.89014183	    105.76923159	     24.24416779	      2.14613920	     63.41061259	    119.79277101	    108.12293087
      1.18333330	     -3.13795852	      2.15719028	     19.72341552	      0.69797035	      0.90253238	     -0.03861375	      8.16530920	      5.16883452	      0.10894234	     16.65933934	      0.29076032	     14.78459611	    -13.73110222	     -7.49999985	     32.18668565	     -4.10662636	     -5.34594767	     16.17279013	      0.28226844	     -1.36090917	    -18.89527110	     -7.49999985	     -2.10860924	     -0.52662308	      7.64716612	     30.95913733	     -4.77324795	     60.41740575	    127.04949922	    105.02698265	     24.88243049	      2.28844455	     63.94578218	    119.74440472	    108.09104305
      1.20000000	     -3.12002331	      2.38467550	     19.71599380	      0.69803207	      0.90443861	     -0.03977202	      7.79682359	      4.89360454	      0.34246057	     15.86175237	      0.27683980	     14.21146227	    -13.66388323	     -7.49999985	     32.38105860	     -3.93618354	     -5.36228789	     16.35116742	      0.28538171	     -1.21326369	    -18.82706545	     -7.49999985	     -2.50011397	     -0.55610868	      7.68108145	     31.20061299	     -4.74383464	     60.61232088	    127.22236166	    104.87479717	     25.29338650	      2.38121360	     64.38660697	    119.92157995	    108.02424024
      1.21666670	     -3.21311308	      2.57885147	     19.60919434	      0.69920180	      0.90509340	     -0.04045269	      7.57107225	      4.61461557	      0.63834359	     15.24670998	      0.26610529	     13.78235908	    -13.59990892	     -7.49999985	     32.58463685	     -3.79596304	     -5.41492862	     16.44531804	      0.28702495	     -1.35472156	    -18.99029146	     -7.49999985	     -2.67382631	     -0.60479363	      7.69926579	     31.30472625	     -4.65062195	     61.01906820	    127.40994352	    103.96640229	     25.57925258	      2.47502202	     64.88842026	    120.34780838	    107.39488148
      1.23333330	     -3.25584847	      2.85082799	     19.51470520	      0.69967345	      0.90517284	     -0.04057520	      7.27948462	      4.24594653	      0.60915634	     14.73217042	      0.25712488	     13.59265317	    -12.97009246	     -7.49999985	     32.67675805	     -3.60615403	     -5.59156003	     16.46841842	      0.28742812	     -1.05651765	    -18.49914423	     -7.49999985	     -2.87974659	     -0.71770153	      7.62168314	     31.28642877	     -4.48617648	     61.42084155	    127.38007370	    104.16200165	     25.69368687	      2.58913694	     65.10393116	    120.79218343	    107.94353741
      1.25000000	     -3.57134495	      2.93869930	     19.40768432	      0.69875556	      0.90420256	     -0.04078330	      7.48101699	      4.01263356	      0.75503522	     14.45740430	      0.25232931	     13.16866435	    -12.91934397	     -7.49999986	     33.31727395	     -3.47629107	     -5.43762572	     16.77645913	      0.29280445	     -0.96738053	    -18.67770046	     -7.49999986	     -2.70093889	     -0.70339895	      7.54135183	     31.24202076	     -4.33047692	     61.84027205	    127.39363688	    103.64759637	     25.79750699	      2.64427744	     65.33346589	    121.24762766	    108.54753136
      1.26666670	     -3.75748113	      3.08796174	     19.38932712	      0.69706127	      0.90354551	     -0.04127200	      7.63264894	      3.74886283	      0.58825125	     14.36125614	      0.25065120	     13.00832150	    -12.63911672	     -7.49999986	     33.87392397	     -3.29886958	     -5.33600024	     17.23468357	      0.30080197	     -0.55893450	    -18.62870607	     -7.49999986	     -2.75186443	     -0.67317098	      7.34462401	     31.32483106	     -4.22081544	     62.16088124	    127.44780629	    102.85269798	     25.96918249	      2.65442758	     65.49030558	    121.69473363	    107.55691590
      1.28333330	     -3.89683469	      3.24773882	     19.33921623	      0.69585103	      0.90322746	     -0.04148256	      7.77724937	      3.50216725	      0.43429320	     14.37012334	      0.25080597	     13.12914123	    -12.30145727	     -7.49999986	     34.28132747	     -3.15956163	     -5.39132736	     17.67353806	      0.30846143	     -0.31590676	    -18.47738403	     -7.49999986	     -2.83883448	     -0.58347700	      7.15010565	     31.51948479	     -4.05362109	     62.38419456	    127.29009291	    104.49851853	     26.08699015	      2.62243176	     65.51642774	    122.04578277	    108.75308379
      1.30000000	     -3.88502891	      3.41562389	     19.25330575	      0.69554745	      0.90304540	     -0.04127487	      7.74349529	      3.32443672	      0.40397240	     14.39112850	      0.25117258	     13.26538407	    -12.32793273	     -7.49999986	     34.27928846	     -3.08041928	     -5.60540810	     17.85541297	      0.31163575	     -0.51360228	    -18.55949681	     -7.49999986	     -3.02695955	     -0.43692796	      7.00425406	     31.67680719	     -3.94548071	     62.64772452	    127.12191750	    103.54822937	     26.20337880	      2.44906159	     65.87655585	    122.35116653	    107.80212462
      1.31666670	     -3.94600594	      3.47896198	     19.16111072	      0.69603060	      0.90182148	     -0.04133488	      7.88375891	      3.23405850	      0.42830163	     14.59435163	      0.25471949	     13.60194391	    -12.18525762	     -7.49999986	     34.23739542	     -3.08092047	     -5.97514828	     17.92188275	      0.31279586	     -0.67076385	    -18.25406267	     -7.49999986	     -3.09263679	     -0.27641754	      6.87815491	     31.57071094	     -3.89682698	     62.53821237	    127.16065259	    104.33073321	     26.11260919	      2.25811540	     66.06559769	    122.90430036	    108.85068491
      1.33333330	     -3.94086062	      3.59821187	     19.06358353	      0.69788666	      0.89946078	     -0.04248721	      7.95446805	      3.08936374	      0.25944750	     14.92014681	      0.26040569	     14.22853959	    -11.88660699	     -7.49999987	     33.98354133	     -3.04002904	     -6.32002352	     17.96183085	      0.31349309	     -0.94451061	    -18.15673737	     -7.49999987	     -3.12929974	     -0.08428128	      6.66809432	     31.31356047	     -3.86149190	     62.37413352	    127.22664333	    104.41874034	     25.94610410	      2.05172540	     66.38039612	    123.49015327	    108.82973376
      1.35000000	     -3.86087680	      3.65957060	     18.96723614	      0.70087300	      0.89607956	     -0.04463683	      7.88848723	      3.05080505	      0.20860212	     15.19466276	      0.26519689	     14.63339567	    -12.04057651	     -7.49999987	     33.64157832	     -3.05074858	     -6.62601956	     18.06591613	      0.31530972	     -1.08870117	    -18.11202416	     -7.49999987	     -2.98673384	      0.23225532	      6.41017937	     30.98928194	     -4.02481981	     62.36805184	    127.26446069	    104.35457637	     25.68885293	      2.03769800	     66.58713890	    123.65571066	    108.72091330
